<svg width="378" height="374" viewBox="0 0 378 374" fill="none" xmlns="http://www.w3.org/2000/svg">
<path d="M352.344 0H24.9533C11.172 0 0 11.0525 0 24.6864V348.576C0 362.21 11.172 373.262 24.9533 373.262H352.344C366.126 373.262 377.298 362.21 377.298 348.576V24.6864C377.298 11.0525 366.126 0 352.344 0Z" fill="#2963F2"/>
<path d="M169.068 302.645V213.937H112.802L100.429 226.223H100.387V302.645H56.4935V170.875L133.886 94.8284V170.875L209.889 94.8284V170.875H234.803L235.603 152.426H298.56L304.663 302.645H169.068Z" fill="white"/>
<path d="M296.592 94.8278H238.081L239.177 70.6162H295.537L296.592 94.8278Z" fill="white"/>
<path d="M296.592 133.163H238.081L238.484 117.022H296.229L296.592 133.163Z" fill="white"/>
<path d="M298.61 119.04H238.081L239.051 94.8284H297.597L298.61 119.04Z" fill="#2963F2"/>
<path d="M298.61 151.322H236.063L237.025 129.128H297.69L298.61 151.322Z" fill="#2963F2"/>
</svg>
